HIERARCHY
ROOT hip
{
	OFFSET 0.000000 0.000000 0.000000 
	CHANNELS 6 Xposition Yposition Zposition Xrotation Zrotation Yrotation
	JOINT abdomen
	{
		OFFSET 0.000000 3.402643 0.000000 
		CHANNELS 3 Xrotation Zrotation Yrotation
		JOINT chest
		{
			OFFSET 0.000000 8.438565 -0.680529 
			CHANNELS 3 Xrotation Zrotation Yrotation
			JOINT neck
			{
				OFFSET 0.000000 10.207942 -0.272212 
				CHANNELS 3 Xrotation Zrotation Yrotation
				JOINT head
				{
					OFFSET 0.000000 3.130431 0.000000 
					CHANNELS 3 Xrotation Zrotation Yrotation
					End Site
					{
						OFFSET 0.000000 3.130435 0.000000 
					}
				}
			}
			JOINT lCollar
			{
				OFFSET 3.470700 6.669187 -0.816635 
				CHANNELS 3 Yrotation Zrotation Xrotation
				JOINT lShldr
				{
					OFFSET 3.198488 0.000000 0.000000 
					CHANNELS 3 Zrotation Yrotation Xrotation
					JOINT lForeArm
					{
						OFFSET 10.139888 0.000000 0.000000 
						CHANNELS 3 Yrotation Zrotation Xrotation
						JOINT lHand
						{
							OFFSET 8.370511 0.000000 0.000000 
							CHANNELS 3 Zrotation Yrotation Xrotation
							End Site
							{
								OFFSET 4.083176 0.000000 0.000000 
							}
						}
					}
				}
			}
			JOINT rCollar
			{
				OFFSET -3.470700 6.669187 -0.816635 
				CHANNELS 3 Yrotation Zrotation Xrotation
				JOINT rShldr
				{
					OFFSET -3.198488 0.000000 0.000000 
					CHANNELS 3 Zrotation Yrotation Xrotation
					JOINT rForeArm
					{
						OFFSET -10.139888 0.000000 0.000000 
						CHANNELS 3 Yrotation Zrotation Xrotation
						JOINT rHand
						{
							OFFSET -8.370511 0.000000 0.000000 
							CHANNELS 3 Zrotation Yrotation Xrotation
							End Site
							{
								OFFSET -4.083176 0.000000 0.000000 
							}
						}
					}
				}
			}
		}
	}
	JOINT lThigh
	{
		OFFSET 5.308129 -1.633274 1.361059 
		CHANNELS 3 Xrotation Zrotation Yrotation
		JOINT lShin
		{
			OFFSET -2.041588 -20.007561 0.000000 
			CHANNELS 3 Xrotation Zrotation Yrotation
			JOINT lFoot
			{
				OFFSET 0.000000 -19.190928 -1.224953 
				CHANNELS 3 Xrotation Yrotation Zrotation
				End Site
				{
					OFFSET 0.000000 -2.449906 4.627600 
				}
			}
		}
	}
	JOINT rThigh
	{
		OFFSET -5.308129 -1.633274 1.361059 
		CHANNELS 3 Xrotation Zrotation Yrotation
		JOINT rShin
		{
			OFFSET 2.041588 -20.007561 0.000000 
			CHANNELS 3 Xrotation Zrotation Yrotation
			JOINT rFoot
			{
				OFFSET 0.000000 -19.190928 -1.224953 
				CHANNELS 3 Xrotation Yrotation Zrotation
				End Site
				{
					OFFSET 0.000000 -2.449906 4.627600 
				}
			}
		}
	}
}
MOTION
Frames: 19
Frame Time: 0.033333
2.218943 13.581406 1.562773 25.095325 -8.360997 -26.128738 9.472656 0.000000 -0.019531 16.020216 22.977085 -13.552381 -8.544920 -0.009766 -0.009767 20.563295 -4.768324 43.340893 1.992188 -2.001953 0.000341 -61.178051 -55.199825 -9.446779 -32.727997 -0.692736 8.436760 -60.342175 -50.698856 -127.470512 -2.001953 1.992188 0.000000 -36.591805 131.212814 -85.086205 55.591389 0.547548 8.627098 41.834431 -68.437286 -66.088959 -173.355850 16.405525 -26.693939 125.638191 4.762401 -3.243161 12.660465 8.911222 11.292521 -41.418152 -24.762362 6.846505 127.224243 -4.951017 3.121887 -33.462162 28.940916 42.762798 
2.218943 13.494180 1.562773 25.414564 -9.487717 -27.229622 9.472656 0.000000 -0.019531 16.020216 22.977085 -13.552381 -8.544920 -0.009766 -0.009767 20.563295 -4.768324 43.340893 1.992188 -2.001953 0.000341 -64.721169 -50.906364 -5.853985 -43.174129 -0.624382 8.517223 -53.583458 -45.446503 -134.718964 -2.001953 1.992188 0.000000 -45.331253 129.961243 -92.673347 65.138382 0.515040 8.724732 51.575626 -68.598099 -74.827293 -174.327042 15.974552 -27.102577 124.845749 4.723235 -3.272807 13.740801 8.988365 12.660337 -44.058765 -25.555128 7.730481 128.537582 -5.036481 3.017137 -27.597586 32.210251 41.447723 
2.218943 13.406957 1.562773 25.762030 -10.615542 -28.341818 9.472656 0.000000 -0.019531 16.020216 22.977085 -13.552381 -8.544920 -0.009766 -0.009767 20.563295 -4.768324 43.340893 1.992188 -2.001953 0.000341 -67.566391 -46.501251 -2.964538 -53.606926 -0.563773 8.611499 -48.306274 -39.722183 -140.495911 -2.001953 1.992188 0.000000 125.602982 50.523510 79.393234 74.693184 0.501336 8.825574 61.244366 -68.195663 -83.487701 -175.296448 15.535563 -27.532785 124.042816 4.674166 -3.327813 14.831203 9.107875 14.025995 -46.723679 -26.296913 8.671991 129.859070 -5.114634 2.964169 -21.390219 35.290989 39.662926 
2.218943 13.172100 1.562773 24.050808 -11.285299 -27.028973 9.472656 0.000000 -0.019531 16.020216 22.977085 -13.552381 -8.544920 -0.009766 -0.009767 20.563295 -4.768324 43.340893 1.992188 -2.001953 0.000341 -71.946533 -46.777317 2.204791 -54.212330 -0.564567 8.613789 -46.388157 -38.127289 -141.010544 -2.001953 1.992188 0.000000 117.466850 50.079647 72.184456 82.324226 0.494897 8.909655 71.085258 -69.150040 -93.443863 -173.179031 16.317390 -25.755621 123.251053 4.635092 -3.342308 15.220025 9.250041 14.988130 -44.541962 -26.929886 8.439185 130.152847 -5.114696 2.953033 -20.655441 35.362663 39.895351 
2.218943 12.937260 1.562773 22.326628 -11.918634 -25.701944 9.472656 0.000000 -0.019531 16.020216 22.977085 -13.552381 -8.544920 -0.009766 -0.009767 20.563295 -4.768324 43.340893 1.992188 -2.001953 0.000341 -76.351173 -46.793041 7.393858 -54.820068 -0.563206 8.623013 -44.531693 -36.513744 -141.449890 -2.001953 1.992188 0.000000 109.607040 48.997906 65.253052 89.955719 0.514096 8.994383 81.521080 -69.450813 -103.984863 -171.045715 17.029404 -23.963318 122.458191 4.584387 -3.393219 15.598999 9.434453 15.957228 -42.366081 -27.565233 8.172725 130.436478 -5.124349 2.950415 -19.942511 35.421551 40.137951 
2.218943 12.961863 1.562773 22.346096 -11.873674 -25.707420 9.472656 0.000000 -0.019531 16.020216 22.977085 -13.552381 -8.544920 -0.009766 -0.009767 20.563295 -4.768324 43.340893 1.992188 -2.001953 0.000341 -75.825027 -47.126789 6.859331 -55.195675 -0.554499 8.625272 -44.785961 -36.148857 -141.399277 -2.001953 1.992188 0.000000 109.789146 49.023083 65.424927 89.920609 0.511334 8.994490 79.744423 -69.571899 -102.361664 -170.956116 17.079897 -23.953077 122.331039 4.584367 -3.394559 15.594380 9.411125 15.904001 -42.208008 -27.359282 8.022995 130.113693 -5.104881 2.955920 -20.777956 35.076466 40.372734 
2.218943 12.986468 1.562773 22.369884 -11.837519 -25.712914 9.472656 0.000000 -0.019531 16.020216 22.977085 -13.552381 -8.544920 -0.009766 -0.009767 20.563295 -4.768324 43.340893 1.992188 -2.001953 0.000341 -75.277283 -47.457542 6.306804 -55.561573 -0.552899 8.633480 -45.034321 -35.791252 -141.362457 -2.001953 1.992188 0.000000 109.975960 49.049225 65.588020 89.883972 0.508452 8.994353 77.941185 -69.694763 -100.730713 -170.852173 17.117689 -23.963764 122.193588 4.564850 -3.420297 15.614798 9.416804 15.853805 -42.048107 -27.156923 7.871444 129.790558 -5.095020 2.969222 -21.585634 34.707058 40.579498 
2.218943 13.040145 1.562773 22.443510 -11.738822 -25.723953 9.472656 0.000000 -0.019531 16.020216 22.977085 -13.552381 -8.544920 -0.009766 -0.009767 20.563295 -4.768324 43.340893 1.992188 -2.001953 0.000341 -74.623947 -47.665176 5.615182 -56.128971 -0.550327 8.635331 -45.321510 -35.471413 -141.315262 -2.001953 1.992188 0.000000 110.296051 49.023006 65.959183 89.792381 0.511016 8.993593 75.925018 -69.933655 -98.941887 -170.685303 17.205402 -23.990891 121.978340 4.555081 -3.429766 15.569223 9.393446 15.744993 -41.838367 -26.676340 7.621425 129.546158 -5.085416 2.969414 -23.725592 33.929752 41.065857 
2.218943 13.093824 1.562773 22.521431 -11.648949 -25.735062 9.472656 0.000000 -0.019531 16.020216 22.977085 -13.552381 -8.544920 -0.009766 -0.009767 20.563295 -4.768324 43.340893 1.992188 -2.001953 0.000341 -73.968063 -47.856731 4.922646 -56.686378 -0.555588 8.640524 -45.617462 -35.145962 -141.259048 -2.001953 1.992188 0.000000 110.610184 48.986084 66.321632 89.700813 0.513585 8.991831 73.877167 -70.130997 -97.124786 -170.517990 17.293097 -24.006287 121.763077 4.537058 -3.443891 15.532552 9.382255 15.609667 -41.622704 -26.207201 7.384862 129.301758 -5.075648 2.969706 -25.817778 33.120659 41.512344 
2.218943 13.154213 1.562773 22.629585 -11.496587 -25.749897 9.472656 0.000000 -0.019531 16.020216 22.977085 -13.552381 -8.544920 -0.009766 -0.009767 20.563295 -4.768324 43.340893 1.992188 -2.001953 0.000341 -73.307884 -47.810909 4.217629 -57.662205 -0.555051 8.648918 -45.825909 -34.728241 -141.331909 -2.001953 1.992188 0.000000 110.874321 48.880856 66.721123 89.829018 0.513896 8.994019 71.974022 -70.439384 -95.479820 -170.391815 17.351858 -24.043882 121.616394 4.537027 -3.445173 15.477160 9.367422 15.456103 -41.501808 -25.721655 7.178406 129.095169 -5.055877 3.006962 -27.894505 32.278187 41.870182 
2.218943 13.214602 1.562773 22.751757 -11.353074 -25.764929 9.472656 0.000000 -0.019531 16.020216 22.977085 -13.552381 -8.544920 -0.009766 -0.009767 20.563295 -4.768324 43.340893 1.992188 -2.001953 0.000341 -72.645622 -47.767292 3.511696 -58.640591 -0.554062 8.658853 -46.040180 -34.304867 -141.396973 -2.001953 1.992188 0.000000 111.129967 48.765038 67.111183 89.955719 0.514096 8.994383 70.020416 -70.737595 -93.772583 -170.273666 17.420048 -24.093246 121.469986 4.527291 -3.444225 15.409717 9.344545 15.272538 -41.393581 -25.233072 6.987369 128.889267 -5.046107 3.023917 -29.912985 31.433262 42.168213 
2.218943 13.257095 1.562773 22.893997 -11.181409 -25.799232 9.472656 0.000000 -0.019531 16.020216 22.977085 -13.552381 -8.544920 -0.009766 -0.009767 20.563295 -4.768324 43.340893 1.992188 -2.001953 0.000341 -72.073380 -47.372513 2.904352 -60.257877 -0.535528 8.671883 -46.091133 -33.675312 -141.675552 -2.001953 1.992188 0.000000 111.141129 48.527397 67.389313 90.543427 0.511528 9.002313 68.567688 -71.165329 -92.605255 -170.324753 17.430246 -24.209248 121.499329 4.527295 -3.443979 15.323039 9.317799 15.019490 -41.276318 -25.018152 6.847617 128.663849 -5.026553 3.041979 -30.864603 30.959127 42.265381 
2.218943 13.299592 1.562773 23.020044 -11.001961 -25.822351 9.472656 0.000000 -0.019531 16.020216 22.977085 -13.552381 -8.544920 -0.009766 -0.009767 20.563295 -4.768324 43.340893 1.992188 -2.001953 0.000341 -71.502136 -46.988068 2.282295 -61.880569 -0.535640 8.688008 -46.147755 -33.047886 -141.953384 -2.001953 1.992188 0.000000 111.159309 48.281666 67.665207 91.128624 0.508768 9.002161 67.067833 -71.573257 -91.385414 -170.372314 17.449537 -24.337334 121.518616 4.537009 -3.446016 15.232260 9.290241 14.788999 -41.181023 -24.804363 6.701690 128.447464 -5.017409 3.077644 -31.811052 30.461063 42.338223 
2.218943 13.330908 1.562773 23.189062 -10.786562 -25.851625 9.472656 0.000000 -0.019531 16.020216 22.977085 -13.552381 -8.544920 -0.009766 -0.009767 20.563295 -4.768324 43.340893 1.992188 -2.001953 0.000341 -70.725456 -47.455914 1.249191 -59.776325 -0.536939 8.666528 -46.982227 -34.629982 -141.179260 -2.001953 1.992188 0.000000 113.639427 48.679028 69.824020 88.322266 0.503141 8.971491 64.898315 -71.526520 -89.215797 -170.561722 17.391678 -24.510664 121.743561 4.545330 -3.439204 15.069829 9.274960 14.528690 -41.092484 -24.804008 6.638543 128.262726 -5.015389 3.050026 -31.914690 30.354378 42.354801 
2.218943 13.362221 1.562773 23.357851 -10.571298 -25.881306 9.472656 0.000000 -0.019531 16.020216 22.977085 -13.552381 -8.544920 -0.009766 -0.009767 20.563295 -4.768324 43.340893 1.992188 -2.001953 0.000341 -69.934288 -47.909378 0.184688 -57.671616 -0.556483 8.646653 -47.848427 -36.201618 -140.367920 -2.001953 1.992188 0.000000 116.156876 49.021271 72.026741 85.515099 0.508487 8.943215 62.748539 -71.444550 -87.066803 -170.750259 17.333660 -24.666401 121.978775 4.564857 -3.412944 14.900704 9.245156 14.247574 -40.998711 -24.811264 6.569385 128.047668 -4.997221 3.053385 -31.999710 30.247784 42.335037 
2.218943 13.384590 1.562773 23.541609 -10.347385 -25.911398 9.472656 0.000000 -0.019531 16.020216 22.977085 -13.552381 -8.544920 -0.009766 -0.009767 20.563295 -4.768324 43.340893 1.992188 -2.001953 0.000341 -69.173401 -48.335690 -0.770819 -55.660362 -0.554392 8.623529 -48.714798 -37.686821 -139.548508 -2.001953 1.992188 0.000000 118.671944 49.273838 74.223824 82.806129 0.503061 8.913422 60.694092 -71.375015 -85.023499 -170.994370 17.245771 -24.853243 122.301712 4.584387 -3.394812 14.721988 9.214461 13.955524 -40.996910 -24.810455 6.550024 127.909897 -4.997917 3.077099 -32.112267 30.085184 42.336441 
2.218943 13.406957 1.562773 23.723392 -10.124445 -25.932325 9.472656 0.000000 -0.019531 16.020216 22.977085 -13.552381 -8.544920 -0.009766 -0.009767 20.563295 -4.768324 43.340893 1.992188 -2.001953 0.000341 -68.380203 -48.762772 -1.747895 -53.646248 -0.567722 8.609484 -49.620777 -39.166634 -138.682877 -2.001953 1.992188 0.000000 121.206680 49.462803 76.429901 80.099861 0.498812 8.881743 58.682259 -71.273407 -83.003426 -171.239960 17.177692 -25.037779 122.604164 4.613760 -3.396690 14.526133 9.193030 13.647565 -41.003799 -24.813540 6.520069 127.773552 -4.998053 3.061389 -32.266827 29.970545 42.369396 
2.218943 13.431562 1.562773 23.907803 -9.883235 -25.961550 9.472656 0.000000 -0.019531 16.020216 22.977085 -13.552381 -8.544920 -0.009766 -0.009767 20.563295 -4.768324 43.340893 1.992188 -2.001953 0.000341 -67.614380 -49.231857 -2.670134 -51.627407 -0.581201 8.590018 -50.550652 -40.591457 -137.781296 -2.001953 1.992188 0.000000 123.754669 49.572201 78.634209 77.369331 0.492616 8.856497 56.663151 -71.156723 -80.985947 -171.523636 17.068401 -25.251657 122.976761 4.633373 -3.358018 14.304116 9.157191 13.339471 -41.054317 -24.814268 6.557181 127.685181 -4.988213 3.074565 -32.430737 29.814657 42.415012 
2.218943 13.456168 1.562773 24.104414 -9.651752 -25.981657 9.472656 0.000000 -0.019531 16.020216 22.977085 -13.552381 -8.544920 -0.009766 -0.009767 20.563295 -4.768324 43.340893 1.992188 -2.001953 0.000341 -66.847748 -49.694481 -3.582613 -49.605991 -0.583125 8.571225 -51.522141 -42.017136 -136.837524 -2.001953 1.992188 0.000000 126.324692 49.624920 80.852524 74.649048 0.497709 8.826701 54.680637 -71.008751 -79.011803 -171.825256 16.972500 -25.490622 123.348152 4.634894 -3.360212 14.087610 9.132498 13.022491 -41.074627 -24.800508 6.569387 127.596825 -4.978376 3.086809 -32.587193 29.677996 42.442757 
